<svg xmlns="http://www.w3.org/2000/svg" viewBox="0 0 64 64" role="img" aria-labelledby="title desc">
  <title id="title">Subdivision Icon</title>
  <desc id="desc">A stylized subdivision with houses and streets.</desc>
  <defs>
    <linearGradient id="bg" x1="0" y1="0" x2="1" y2="1">
      <stop offset="0%" stop-color="#0D1F1C"/>
      <stop offset="100%" stop-color="#081412"/>
    </linearGradient>
    <linearGradient id="road" x1="0" y1="0" x2="1" y2="0">
      <stop offset="0%" stop-color="#1D3A35"/>
      <stop offset="100%" stop-color="#16302C"/>
    </linearGradient>
  </defs>

  <rect x="1" y="1" width="62" height="62" rx="14" fill="url(#bg)" stroke="#B6FF5C" stroke-width="2"/>

  <rect x="7" y="34" width="50" height="8" rx="3" fill="url(#road)"/>
  <rect x="29" y="16" width="6" height="32" rx="2" fill="url(#road)"/>

  <g fill="#B6FF5C">
    <path d="M10 31l6-5 6 5v7h-12z" opacity="0.95"/>
    <path d="M26 31l6-5 6 5v7h-12z" opacity="0.95"/>
    <path d="M42 31l6-5 6 5v7h-12z" opacity="0.95"/>
    <path d="M20 23l6-5 6 5v7h-12z" opacity="0.85"/>
    <path d="M34 23l6-5 6 5v7h-12z" opacity="0.85"/>
  </g>

  <circle cx="16" cy="38" r="1" fill="#081412"/>
  <circle cx="32" cy="38" r="1" fill="#081412"/>
  <circle cx="48" cy="38" r="1" fill="#081412"/>
</svg>
